# xmcd
#
# Track frame offsets: 
#        150
#        17830
#        34842
#        51087
#        65260
#        78885
#        95032
#        116665
#        136227
#        155705
#        170557
#
# Disc length: 2442 seconds
#
# Revision: 3
# Processed by: cddbd v1.5.2PL0 Copyright (c) Steve Scherf et al.
# Submitted via: ExactAudioCopy v1.0b1
#
DISCID=8f09880b
DTITLE=Jason McCoy - Jason McCoy
DYEAR=1995
DGENRE=Country
TTITLE0=Country Side
TTITLE1=This Used To Be Our Town
TTITLE2=Learnin' A Lot About Love
TTITLE3=Candle
TTITLE4=I Know How To Love You
TTITLE5=Take It From Me
TTITLE6=Fastest Man Alive
TTITLE7=All The Way
TTITLE8=Ghosts
TTITLE9=Your Mama Warned You 'Bout Me
TTITLE10=Cornelia
EXTD=
EXTT0=
EXTT1=
EXTT2=
EXTT3=
EXTT4=
EXTT5=
EXTT6=
EXTT7=
EXTT8=
EXTT9=
EXTT10=
PLAYORDER=
